0
SECTION
2
HEADER
9
$ACADVER
1
AC1009
0
ENDSEC
0
SECTION
2
BLOCKS
0
BLOCK
8
0
2
SMPS_24V_BLOCK
70
0
10
0.0
20
0.0
30
0.0
3
SMPS_24V_BLOCK
1
SMPS DC 24V POWER SUPPLY
0
LINE
8
OUTLINE
10
0.0
20
0.0
30
0.0
11
60.0
21
0.0
31
0.0
0
LINE
8
OUTLINE
10
60.0
20
0.0
30
0.0
11
60.0
21
80.0
31
0.0
0
LINE
8
OUTLINE
10
60.0
20
80.0
30
0.0
11
0.0
21
80.0
31
0.0
0
LINE
8
OUTLINE
10
0.0
20
80.0
30
0.0
11
0.0
21
0.0
31
0.0
0
TEXT
8
TEXT
10
10.0
20
40.0
30
0.0
40
8.0
1
SMPS 24V
0
ENDBLK
0
ENDSEC
0
SECTION
2
ENTITIES
0
INSERT
8
ELECTRICAL
2
SMPS_24V_BLOCK
10
50.0
20
50.0
30
0.0
41
1.0
42
1.0
43
1.0
50
0.0
0
ENDSEC
0
EOF
